<svg width="200" height="200" viewBox="0 0 200 200" fill="none" xmlns="http://www.w3.org/2000/svg">
  <rect width="200" height="200" fill="#F3F4F6"/>
  <rect x="40" y="60" width="120" height="80" rx="8" fill="white" stroke="#E5E7EB" stroke-width="2"/>
  <rect x="50" y="70" width="100" height="20" rx="4" fill="#3B82F6" opacity="0.1"/>
  <circle cx="60" cy="80" r="3" fill="#10B981"/>
  <circle cx="70" cy="80" r="3" fill="#F59E0B"/>
  <circle cx="80" cy="80" r="3" fill="#EF4444"/>
  <rect x="50" y="100" width="80" height="3" rx="1.5" fill="#6B7280"/>
  <rect x="50" y="110" width="60" height="3" rx="1.5" fill="#9CA3AF"/>
  <rect x="50" y="120" width="70" height="3" rx="1.5" fill="#9CA3AF"/>
  <path d="M75 155 L85 145 M85 145 L95 155 M85 145 L85 135" stroke="#3B82F6" stroke-width="2" stroke-linecap="round" stroke-linejoin="round"/>
  <path d="M105 145 L115 155 M115 155 L125 145 M115 155 L115 165" stroke="#3B82F6" stroke-width="2" stroke-linecap="round" stroke-linejoin="round"/>
  <rect x="90" y="142" width="20" height="6" rx="3" fill="#3B82F6"/>
  <text x="100" y="190" text-anchor="middle" fill="#6B7280" font-family="Arial, sans-serif" font-size="12">Web Link</text>
</svg>